<svg xmlns="http://www.w3.org/2000/svg" width="31" height="20" viewBox="0 0 31 20">
  <g fill="none" fill-rule="evenodd">
    <rect width="31" height="20" fill="#FFF"/>
    <polygon fill="#1A1F71" fill-rule="nonzero" points="1 3.208 30 3.208 30 .514 1 .514"/>
    <polygon fill="#F7BC15" fill-rule="nonzero" points=".936 16.531 29.936 16.531 29.936 19.225 .936 19.225"/>
    <path fill="#1A1F71" fill-rule="nonzero" d="M11.7562724,7.62589929 L10.1783512,0.222302158 L8.2698208,0.222302158 L9.84788529,7.62589929 L11.7562724,7.62589929 L11.7562724,7.62589929 Z M19.7855197,2.84517986 L20.7902509,5.62561151 L21.368172,2.84517986 L19.7855197,2.84517986 L19.7855197,2.84517986 Z M21.9158423,0.222302158 L23.6805735,0.222302158 L22.1387814,7.62589929 L20.5108244,7.62589929 C20.1439427,7.62589929 19.8348387,7.41237409 19.6979212,7.08316547 L16.8341219,0.222302158 L18.8384229,0.222302158 L19.2364158,1.32791367 L21.6845878,1.32791367 L21.9158423,0.222302158 L21.9158423,0.222302158 Z M16.9334767,2.63942446 C16.9419355,4.59323742 14.2422939,4.70158276 14.2602151,5.57453236 C14.2660932,5.83985613 14.5181362,6.12244604 15.0693907,6.19467627 C15.3427957,6.23007196 16.0967742,6.25856116 16.9516846,5.86330933 L17.2860215,7.43395684 C16.82681,7.60057556 16.2359856,7.76115107 15.5009319,7.76115107 C13.6141936,7.76115107 12.2868817,6.75539569 12.2762724,5.31395684 C12.2642294,4.24805756 13.2243728,3.65381295 13.9462366,3.29884892 C14.6906093,2.93597122 14.9400717,2.70316547 14.9364875,2.3789928 C14.9313262,1.88230216 14.3427957,1.66244604 13.7951255,1.65410072 C12.8348387,1.63913669 12.2785663,1.91453237 11.8349821,2.12201439 L11.4886021,0.498992804 C11.9351971,0.29381295 12.7581362,0.115251799 13.6103226,0.106043165 C15.6160573,0.106043165 16.9275986,1.10014388 16.9334767,2.63942446 L16.9334767,2.63942446 Z M9.02924733,7.62589929 L5.93691756,0.222302158 L3.91971326,0.222302158 L2.39784946,6.13093524 C2.30566308,6.49424462 2.22523297,6.62776978 1.9446595,6.78129498 C1.48573477,7.0315108 0.728028676,7.26546764 0.061935484,7.41107916 L0.106953405,7.62589929 L3.35455197,7.62589929 C3.76817204,7.62589929 4.14035842,7.34964027 4.23498208,6.8715108 L5.03885307,2.58690648 L7.02422938,7.62589929 L9.02924733,7.62589929 L9.02924733,7.62589929 Z" transform="matrix(1 0 0 -1 3.6 13.93)"/>
  </g>
</svg>
